<svg id="Layer_1" data-name="Layer 1" xmlns="http://www.w3.org/2000/svg" viewBox="0 0 393.12 393.12">
  <defs>
    <style>
      .cls-1 {
        fill: #0277bd;
      }

      .cls-2, .cls-3 {
        fill: #4a4d4f;
      }

      .cls-3 {
        stroke: #231f20;
        stroke-linecap: square;
        stroke-width: 5.23px;
      }

      .cls-3, .cls-4 {
        stroke-miterlimit: 10;
      }

      .cls-4 {
        fill: #fff;
        stroke: #0277bd;
      }
    </style>
  </defs>
  <title>LogoASQ</title>
  <circle class="cls-1" cx="196.56" cy="196.56" r="196.56"/>
  <g>
    <path class="cls-2" d="M601.32,521.56h13q0,11.72,7.2,18.69,7,7.14,18.85,7.14t18.85-5.27a16.6,16.6,0,0,0,7.2-14.1q0-8-8.4-12.74-6.17-3.4-17.65-5.44-15.26-2.72-25.19-10-11.31-8.49-11.31-20.9a24.26,24.26,0,0,1,9.94-20.22q9.94-7.65,26.56-7.65t26.56,9q9.94,9,9.94,24h-13a27.26,27.26,0,0,0-8.06-15.63,22.5,22.5,0,0,0-15.42-5.78q-10.63,0-17.14,4.42a13.79,13.79,0,0,0-6.34,11.89q0,7.82,7.37,13.08,6.17,4.59,16.11,6.29,17,2.89,26.56,8.83,12.51,7.48,12.51,19.71,0,14.61-10.63,23.28-10.8,8.84-28.45,8.83t-28.45-10.19Q601.31,538.55,601.32,521.56Z" transform="translate(-443.3 -315.87)"/>
    <g>
      <g>
        <path class="cls-3" d="M749,554.24" transform="translate(-443.3 -315.87)"/>
        <path class="cls-2" d="M759.82,465.43v78.16l0,42-13.8-42H712.5V465.43h47.32M774,451.9H698.28V557.13H774V451.9Z" transform="translate(-443.3 -315.87)"/>
      </g>
      <g>
        <path class="cls-4" d="M740.28,554.24" transform="translate(-443.3 -315.87)"/>
        <path class="cls-4" d="M751.11,465.43v78.16l0,42-13.8-42H703.79V465.43h47.32m14.21-13.53H689.57V557.13h75.74V451.9Z" transform="translate(-443.3 -315.87)"/>
      </g>
    </g>
    <path class="cls-4" d="M593.61,521.78h13q0,11.72,7.2,18.69,7,7.14,18.85,7.14t18.85-5.27a16.6,16.6,0,0,0,7.2-14.1q0-8-8.4-12.74-6.17-3.4-17.65-5.44-15.26-2.72-25.19-10-11.31-8.49-11.31-20.9a24.26,24.26,0,0,1,9.94-20.22q9.94-7.65,26.56-7.65t26.56,9q9.94,9,9.94,24h-13a27.26,27.26,0,0,0-8.06-15.63,22.5,22.5,0,0,0-15.42-5.78q-10.63,0-17.14,4.42a13.79,13.79,0,0,0-6.34,11.89q0,7.82,7.37,13.08,6.17,4.59,16.11,6.29,17,2.89,26.56,8.83,12.51,7.48,12.51,19.71,0,14.61-10.63,23.28-10.8,8.84-28.45,8.83T604.23,549Q593.61,538.77,593.61,521.78Z" transform="translate(-443.3 -315.87)"/>
    <g>
      <path d="M528.91,518.54" transform="translate(-443.3 -315.87)"/>
      <polygon class="cls-2" points="50.38 244.36 65.37 244.36 99.1 151.53 132.83 244.36 147.82 244.36 108.76 134.34 89.43 134.34 50.38 244.36"/>
      <polygon class="cls-4" points="44.38 244.36 59.37 244.36 93.09 151.53 126.82 244.36 141.81 244.36 102.76 134.34 83.43 134.34 44.38 244.36"/>
    </g>
  </g>
</svg>
