<svg id="Layer_1" data-name="Layer 1" xmlns="http://www.w3.org/2000/svg" viewBox="0 0 186.63 186.63">
  <defs>
    <style>
      .cls-1 {
        fill: #db5461;
      }

      .cls-2, .cls-3 {
        fill: #0d3b66;
      }

      .cls-3 {
        stroke: #231f20;
        stroke-linecap: square;
        stroke-miterlimit: 10;
        stroke-width: 2.48px;
      }

      .cls-4 {
        fill: #fff;
      }
    </style>
  </defs>
  <title>logo</title>
  <circle id="_Ellipse_" data-name="&lt;Ellipse&gt;" class="cls-1" cx="93.31" cy="93.31" r="93.31"/>
  <path id="_Compound_Path_" data-name="&lt;Compound Path&gt;" class="cls-2" d="M319.48,368.89h6.18a11.78,11.78,0,0,0,3.42,8.87,12,12,0,0,0,9,3.39q5.61,0,9-2.5A7.88,7.88,0,0,0,350.4,372q0-3.79-4-6a28,28,0,0,0-8.38-2.58,28.27,28.27,0,0,1-12-4.76q-5.37-4-5.37-9.92a11.52,11.52,0,0,1,4.72-9.6q4.72-3.63,12.61-3.63t12.61,4.27a14.6,14.6,0,0,1,4.72,11.37h-6.18a12.94,12.94,0,0,0-3.82-7.42,10.68,10.68,0,0,0-7.32-2.74,14.24,14.24,0,0,0-8.14,2.1,6.55,6.55,0,0,0-3,5.65,7.42,7.42,0,0,0,3.5,6.21,17.62,17.62,0,0,0,7.65,3q8.06,1.37,12.61,4.19,5.94,3.55,5.94,9.36a13.52,13.52,0,0,1-5,11q-5.13,4.19-13.51,4.19t-13.51-4.84Q319.48,377,319.48,368.89Z" transform="translate(-244.47 -271.24)"/>
  <g id="_Group_" data-name="&lt;Group&gt;">
    <path id="_Path_" data-name="&lt;Path&gt;" class="cls-3" d="M389.59,384.41" transform="translate(-244.47 -271.24)"/>
    <path id="_Compound_Path_2" data-name="&lt;Compound Path&gt;" class="cls-2" d="M394.73,342.25v37.11l0,19.94-6.55-19.94h-15.9V342.25h22.46m6.75-6.43h-36v50h36v-50Z" transform="translate(-244.47 -271.24)"/>
  </g>
  <g id="_Group_2" data-name="&lt;Group&gt;">
    <path id="_Path_2" data-name="&lt;Path&gt;" class="cls-4" d="M385.46,384.41" transform="translate(-244.47 -271.24)"/>
    <path id="_Compound_Path_3" data-name="&lt;Compound Path&gt;" class="cls-4" d="M390.6,342.25v37.11l0,19.94L384,379.35h-15.9V342.25H390.6m6.75-6.43h-36v50h36v-50Z" transform="translate(-244.47 -271.24)"/>
  </g>
  <path id="_Compound_Path_4" data-name="&lt;Compound Path&gt;" class="cls-4" d="M315.83,369H322a11.78,11.78,0,0,0,3.42,8.87,12,12,0,0,0,9,3.39q5.61,0,9-2.5a7.88,7.88,0,0,0,3.42-6.69q0-3.79-4-6a28,28,0,0,0-8.38-2.58,28.27,28.27,0,0,1-12-4.76q-5.37-4-5.37-9.92a11.52,11.52,0,0,1,4.72-9.6q4.72-3.63,12.61-3.63T347,339.8a14.6,14.6,0,0,1,4.72,11.37h-6.18a12.94,12.94,0,0,0-3.82-7.42,10.68,10.68,0,0,0-7.32-2.74,14.24,14.24,0,0,0-8.14,2.1,6.55,6.55,0,0,0-3,5.65,7.42,7.42,0,0,0,3.5,6.21,17.62,17.62,0,0,0,7.65,3q8.06,1.37,12.61,4.19,5.94,3.55,5.94,9.36a13.52,13.52,0,0,1-5,11q-5.13,4.19-13.51,4.19t-13.51-4.84Q315.82,377.06,315.83,369Z" transform="translate(-244.47 -271.24)"/>
  <path id="_Path_3" data-name="&lt;Path&gt;" d="M285.11,367.46" transform="translate(-244.47 -271.24)"/>
  <polygon id="_Path_4" data-name="&lt;Path&gt;" class="cls-2" points="23.92 116.01 31.03 116.01 47.05 71.94 63.06 116.01 70.17 116.01 51.63 63.77 42.46 63.77 23.92 116.01"/>
  <polygon id="_Path_5" data-name="&lt;Path&gt;" class="cls-4" points="21.07 116.01 28.18 116.01 44.2 71.94 60.21 116.01 67.33 116.01 48.78 63.77 39.61 63.77 21.07 116.01"/>
</svg>
