<svg id="Layer_1" data-name="Layer 1" xmlns="http://www.w3.org/2000/svg" viewBox="0 0 38.14 18.03">
  <defs>
    <style>
      .cls-1 {
        fill: #ec4762;
      }

      .cls-2 {
        fill: #fff;
      }
    </style>
  </defs>
  <title>navlogo</title>
  <path id="_Compound_Path_" data-name="&lt;Compound Path&gt;" class="cls-1" d="M302.14,397.17h1.74a3.3,3.3,0,0,0,1,2.49,3.36,3.36,0,0,0,2.51,1,4.09,4.09,0,0,0,2.51-.7,2.21,2.21,0,0,0,1-1.88,1.91,1.91,0,0,0-1.12-1.7,7.87,7.87,0,0,0-2.35-.72,7.93,7.93,0,0,1-3.36-1.34,3.38,3.38,0,0,1-1.51-2.78,3.23,3.23,0,0,1,1.32-2.69,5.66,5.66,0,0,1,3.54-1,5.07,5.07,0,0,1,3.54,1.2,4.1,4.1,0,0,1,1.32,3.19h-1.74a3.63,3.63,0,0,0-1.07-2.08,3,3,0,0,0-2.05-.77,4,4,0,0,0-2.28.59,1.84,1.84,0,0,0-.84,1.58,2.08,2.08,0,0,0,1,1.74,4.94,4.94,0,0,0,2.15.84,10,10,0,0,1,3.54,1.18,3,3,0,0,1,1.67,2.63,3.79,3.79,0,0,1-1.42,3.1,5.8,5.8,0,0,1-3.79,1.18,5.29,5.29,0,0,1-3.79-1.36A4.78,4.78,0,0,1,302.14,397.17Z" transform="translate(-287 -387.66)"/>
  <g id="_Group_" data-name="&lt;Group&gt;">
    <path id="_Path_" data-name="&lt;Path&gt;" class="cls-1" d="M321.81,401.52" transform="translate(-287 -387.66)"/>
    <path id="_Compound_Path_2" data-name="&lt;Compound Path&gt;" class="cls-1" d="M323.25,389.69v16l-1.84-5.59h-4.46V389.69h6.3m1.89-1.8H315.05v14h10.09v-14Z" transform="translate(-287 -387.66)"/>
  </g>
  <g id="_Group_2" data-name="&lt;Group&gt;">
    <path id="_Path_2" data-name="&lt;Path&gt;" class="cls-2" d="M320.65,401.52" transform="translate(-287 -387.66)"/>
    <path id="_Compound_Path_3" data-name="&lt;Compound Path&gt;" class="cls-2" d="M322.09,389.69v16l-1.84-5.59h-4.46V389.69h6.3m1.89-1.8H313.89v14H324v-14Z" transform="translate(-287 -387.66)"/>
  </g>
  <path id="_Compound_Path_4" data-name="&lt;Compound Path&gt;" class="cls-2" d="M301.11,397.2h1.74a3.3,3.3,0,0,0,1,2.49,3.36,3.36,0,0,0,2.51,1,4.09,4.09,0,0,0,2.51-.7,2.21,2.21,0,0,0,1-1.88,1.91,1.91,0,0,0-1.12-1.7,7.87,7.87,0,0,0-2.35-.72A7.93,7.93,0,0,1,303,394.3a3.38,3.38,0,0,1-1.51-2.78,3.23,3.23,0,0,1,1.32-2.69,5.66,5.66,0,0,1,3.54-1,5.07,5.07,0,0,1,3.54,1.2,4.1,4.1,0,0,1,1.32,3.19h-1.74a3.63,3.63,0,0,0-1.07-2.08,3,3,0,0,0-2.05-.77,4,4,0,0,0-2.28.59,1.84,1.84,0,0,0-.84,1.58,2.08,2.08,0,0,0,1,1.74,4.94,4.94,0,0,0,2.15.84,10,10,0,0,1,3.54,1.18,3,3,0,0,1,1.67,2.63,3.79,3.79,0,0,1-1.42,3.1,5.8,5.8,0,0,1-3.79,1.18,5.29,5.29,0,0,1-3.79-1.36A4.78,4.78,0,0,1,301.11,397.2Z" transform="translate(-287 -387.66)"/>
  <polygon id="_Path_3" data-name="&lt;Path&gt;" class="cls-1" points="0.8 14.66 2.8 14.66 7.29 2.29 11.78 14.66 13.78 14.66 8.58 0 6 0 0.8 14.66"/>
  <polygon id="_Path_4" data-name="&lt;Path&gt;" class="cls-2" points="0 14.66 2 14.66 6.49 2.29 10.98 14.66 12.98 14.66 7.78 0 5.2 0 0 14.66"/>
</svg>
